# This file uses centimeters as units for non-parametric coordinates.

g default
v -0.558059 0.030195 1.560730
v 0.000000 0.030195 1.834720
v -0.451028 1.465767 2.945790
v -0.809082 1.461032 2.554805
v 0.452653 1.465744 2.944014
v 0.558059 0.030195 1.560730
v 0.809082 1.461032 2.554805
v -0.842570 1.836724 2.749680
v -0.456174 1.930135 3.252823
v -0.004950 1.951074 3.560471
v 0.000000 1.662807 1.384107
v 0.868299 0.030195 0.777441
v 1.221337 1.728154 1.908155
v -0.868299 0.030195 0.777441
v -1.221337 1.728154 1.908155
v 0.000000 1.465320 1.141692
v 1.359698 1.465320 1.156352
v 1.364269 1.400144 -0.433796
v 0.000000 1.400144 -0.449860
v -1.359698 1.465320 1.156352
v -1.364269 1.400144 -0.433796
v -0.774810 0.030195 -1.160102
v 0.774810 0.030195 -1.160103
v 1.319095 1.662807 1.398379
v -1.319095 1.662807 1.398379
v -0.562222 0.030195 -2.453168
v -1.059498 1.590534 -2.003624
v -0.544883 1.907320 -3.143529
v 1.059498 1.590534 -2.003624
v 0.562222 0.030195 -2.453168
v 0.544883 1.907320 -3.143529
v 0.000000 1.715856 -2.497136
v 0.842570 1.836724 2.749680
v 0.447366 1.930508 3.255469
v 0.001284 1.468072 3.136212
v 0.000000 1.942926 -3.348560
v 0.000000 0.030195 -2.615752
v -0.007293 1.462319 2.611265
v 0.093139 1.651747 2.544447
v 0.069214 2.288751 4.455066
v -0.000023 2.158161 4.501129
v -0.069260 2.288917 4.455538
v -0.107725 1.651987 2.545132
v 0.010550 9.254497 0.566719
v 0.087519 9.254307 0.408298
v -0.066415 9.254301 0.408299
v 0.139494 1.407352 0.363101
v -0.122641 1.407333 0.363096
v 0.008430 1.407354 0.631397
v 0.002414 2.023362 0.366114
v -0.095777 2.224225 0.344978
v 0.782081 2.176913 -3.873375
v 0.849773 2.038440 -3.858803
v 0.917906 2.176909 -3.846406
v 0.101243 2.224219 0.384099
v 0.002270 5.756229 0.395727
v -0.076685 5.957826 0.373242
v 0.354465 6.527337 -1.659486
v 0.417621 6.394642 -1.687106
v 0.465168 6.527479 -1.637579
v 0.083895 5.958032 0.405021
vt 0.306050 0.731550
vt 0.245200 0.683981
vt 0.122657 0.825887
vt 0.181884 0.850305
vt 0.123259 0.826037
vt 0.245414 0.683973
vt 0.306460 0.731731
vt 0.182102 0.850493
vt 0.826461 0.390223
vt 0.888296 0.436917
vt 0.925300 0.491773
vt 0.659977 0.491998
vt 0.409514 0.750840
vt 0.264798 0.902536
vt 0.409139 0.750444
vt 0.264350 0.902216
vt 0.623732 0.491944
vt 0.625122 0.656546
vt 0.432553 0.656767
vt 0.430840 0.491685
vt 0.625627 0.327382
vt 0.433032 0.326602
vt 0.650521 0.744462
vt 0.362412 0.885371
vt 0.560383 0.879269
vt 0.362810 0.885698
vt 0.650772 0.744862
vt 0.560680 0.879600
vt 0.723519 0.639927
vt 0.661347 0.651638
vt 0.723922 0.344267
vt 0.661791 0.332390
vt 0.813013 0.730234
vt 0.760546 0.879075
vt 0.919924 0.886853
vt 0.760738 0.879405
vt 0.813179 0.730641
vt 0.920036 0.887180
vt 0.180519 0.491281
vt 0.241490 0.619709
vt 0.099461 0.557149
vt 0.241788 0.362957
vt 0.099601 0.425229
vt 0.826187 0.594246
vt 0.074936 0.867757
vt 0.151764 0.886529
vt 0.074170 0.867004
vt 0.151851 0.886691
vt 0.329771 0.903525
vt 0.329355 0.903207
vt 0.888473 0.546657
vt 0.075333 0.788541
vt 0.075502 0.789155
vt 0.014667 0.834623
vt 0.013971 0.833834
vt 0.987344 0.860058
vt 0.878212 0.697794
vt 0.987409 0.860369
vt 0.878332 0.698192
vt 0.074521 0.491163
vt 0.054682 0.141906
vt 0.054682 0.121786
vt 0.380507 0.120638
vt 0.380507 0.131906
vt 0.447527 0.060640
vt 0.463804 0.089557
vt 0.431248 0.089557
vt 0.386850 0.120638
vt 0.380507 0.131906
vt 0.054682 0.141906
vt 0.054682 0.121786
vt 0.032472 0.058333
vt 0.032472 0.039785
vt 0.341873 0.030289
vt 0.341873 0.043119
vt 0.463804 0.075946
vt 0.431248 0.091881
vt 0.431248 0.060815
vt 0.380507 0.120706
vt 0.380507 0.132812
vt 0.054682 0.141906
vt 0.054682 0.122367
vt 0.032472 0.058333
vt 0.032472 0.039785
vt 0.341873 0.031149
vt 0.341873 0.043555
vt 0.033160 0.057709
vt 0.033160 0.042324
vt 0.342562 0.047870
vt 0.342561 0.056132
vt 0.054682 0.141906
vt 0.054682 0.121786
vt 0.380507 0.120638
vt 0.380507 0.131906
vt 0.447527 0.060640
vt 0.463804 0.089557
vt 0.431248 0.089557
vt 0.386850 0.120638
vt 0.380507 0.131906
vt 0.054682 0.141906
vt 0.054682 0.121786
vt 0.032472 0.058333
vt 0.032472 0.039785
vt 0.341873 0.030289
vt 0.341873 0.043119
vt 0.054682 0.141906
vt 0.054682 0.121786
vt 0.380507 0.120638
vt 0.380507 0.131906
vt 0.447527 0.060640
vt 0.463804 0.089557
vt 0.431248 0.089557
vt 0.386850 0.120638
vt 0.380507 0.131906
vt 0.054682 0.141906
vt 0.054682 0.121786
vt 0.032472 0.058333
vt 0.032472 0.039785
vt 0.341873 0.030289
vt 0.341873 0.043119
vn -0.680997 -0.515789 0.519813
vn 0.000738 -0.672187 0.740381
vn -0.466162 -0.558571 0.686070
vn -0.733036 -0.433870 0.523846
vn 0.466715 -0.556503 0.687373
vn 0.000738 -0.672187 0.740381
vn 0.680892 -0.515792 0.519948
vn 0.732751 -0.433073 0.524904
vn 0.000012 0.990946 -0.134259
vn 0.001565 0.989974 -0.141238
vn 0.000005 0.989975 -0.141242
vn 0.000001 0.964471 -0.264190
vn 0.680892 -0.515792 0.519948
vn 0.898789 -0.383405 0.212553
vn 0.904273 -0.282098 0.320485
vn 0.732751 -0.433073 0.524904
vn -0.898789 -0.383405 0.212553
vn -0.680997 -0.515789 0.519813
vn -0.733036 -0.433870 0.523846
vn -0.904273 -0.282098 0.320485
vn 0.000000 0.999162 -0.040935
vn 0.000462 0.999162 -0.040935
vn 0.011513 0.998778 0.048065
vn 0.000000 0.998844 0.048068
vn -0.000462 0.999162 -0.040935
vn 0.000000 0.999162 -0.040935
vn 0.000000 0.998844 0.048068
vn -0.011513 0.998778 0.048064
vn -0.941114 -0.285591 -0.180948
vn -0.898789 -0.383405 0.212553
vn -0.952000 -0.261027 0.159877
vn -0.939420 -0.322123 -0.117164
vn 0.952000 -0.261028 0.159877
vn 0.898789 -0.383405 0.212553
vn 0.941114 -0.285591 -0.180948
vn 0.939420 -0.322123 -0.117164
vn 0.000001 0.964471 -0.264190
vn 0.001457 0.991891 -0.127081
vn 0.004261 0.918938 -0.394379
vn -0.001457 0.991891 -0.127080
vn 0.000001 0.964471 -0.264190
vn -0.004261 0.918938 -0.394379
vn -0.898789 -0.383405 0.212553
vn -0.904273 -0.282098 0.320485
vn -0.952000 -0.261027 0.159877
vn 0.904273 -0.282098 0.320485
vn 0.898789 -0.383405 0.212553
vn 0.952000 -0.261028 0.159877
vn -0.929321 -0.208330 -0.304895
vn -0.941114 -0.285591 -0.180948
vn -0.932932 -0.248124 -0.260906
vn -0.929321 -0.208330 -0.304895
vn 0.932932 -0.248124 -0.260907
vn 0.941114 -0.285591 -0.180948
vn 0.929321 -0.208330 -0.304895
vn 0.929321 -0.208330 -0.304895
vn 0.000000 0.974807 0.223050
vn 0.004450 0.978629 0.205587
vn -0.023702 0.963818 0.265505
vn -0.004450 0.978629 0.205587
vn 0.000000 0.974807 0.223050
vn 0.023702 0.963818 0.265505
vn 0.000000 0.998844 0.048068
vn 0.011513 0.998778 0.048065
vn 0.004450 0.978629 0.205587
vn 0.000000 0.974807 0.223050
vn -0.011513 0.998778 0.048064
vn 0.000000 0.998844 0.048068
vn 0.000000 0.974807 0.223050
vn -0.004450 0.978629 0.205587
vn -0.941114 -0.285591 -0.180948
vn -0.939420 -0.322123 -0.117164
vn -0.932932 -0.248124 -0.260906
vn 0.939420 -0.322123 -0.117164
vn 0.941114 -0.285591 -0.180948
vn 0.932932 -0.248124 -0.260907
vn 0.000001 0.964471 -0.264190
vn -0.000007 0.990946 -0.134263
vn 0.001457 0.991891 -0.127081
vn 0.000012 0.990946 -0.134259
vn 0.000001 0.964471 -0.264190
vn -0.001457 0.991891 -0.127080
vn -0.733036 -0.433870 0.523846
vn -0.466162 -0.558571 0.686070
vn -0.543857 -0.489934 0.681311
vn -0.777127 -0.350036 0.523018
vn 0.543587 -0.486022 0.684321
vn 0.466715 -0.556503 0.687373
vn 0.732751 -0.433073 0.524904
vn 0.776586 -0.348405 0.524907
vn 0.904273 -0.282098 0.320485
vn 0.952000 -0.261028 0.159877
vn 0.980709 -0.034224 0.192455
vn 0.006821 0.775307 -0.631548
vn 0.000000 0.775325 -0.631563
vn 0.000001 0.964471 -0.264190
vn 0.004261 0.918938 -0.394379
vn 0.000000 0.775325 -0.631563
vn -0.006821 0.775307 -0.631548
vn -0.004261 0.918938 -0.394379
vn 0.000001 0.964471 -0.264190
vn -0.952000 -0.261027 0.159877
vn -0.904273 -0.282098 0.320485
vn -0.980709 -0.034223 0.192455
vn 0.732751 -0.433073 0.524904
vn 0.904273 -0.282098 0.320485
vn 0.776586 -0.348405 0.524907
vn -0.904273 -0.282098 0.320485
vn -0.733036 -0.433870 0.523846
vn -0.777127 -0.350036 0.523018
vn 0.000005 0.989975 -0.141242
vn -0.001555 0.989973 -0.141246
vn -0.000007 0.990946 -0.134263
vn 0.000001 0.964471 -0.264190
vn 0.000738 -0.672187 0.740381
vn 0.001065 -0.642580 0.766218
vn -0.466162 -0.558571 0.686070
vn 0.000738 -0.672187 0.740381
vn 0.466715 -0.556503 0.687373
vn 0.001065 -0.642580 0.766218
vn -0.466162 -0.558571 0.686070
vn 0.001065 -0.642580 0.766218
vn -0.386617 -0.566438 0.727788
vn -0.543857 -0.489934 0.681311
vn 0.001065 -0.642580 0.766218
vn 0.466715 -0.556503 0.687373
vn 0.543587 -0.486022 0.684321
vn 0.387641 -0.562303 0.730445
vn -0.287116 -0.335597 -0.897184
vn 0.000000 -0.350349 -0.936619
vn 0.000000 -0.350349 -0.936619
vn -0.287116 -0.335597 -0.897184
vn 0.000000 -0.350349 -0.936619
vn 0.287116 -0.335597 -0.897184
vn 0.287116 -0.335597 -0.897184
vn 0.000000 -0.350349 -0.936619
vn 0.000000 0.974807 0.223050
vn -0.023702 0.963818 0.265505
vn 0.000000 0.966228 0.257687
vn 0.000000 0.974807 0.223050
vn 0.000000 0.966228 0.257687
vn 0.023702 0.963818 0.265505
vn 0.999929 0.003932 0.011209
vn 0.999929 0.003932 0.011209
vn 0.999929 0.003932 0.011209
vn 0.999929 0.003932 0.011209
vn 0.003610 0.330940 0.943645
vn 0.003610 0.330940 0.943645
vn 0.003610 0.330940 0.943645
vn -0.999818 0.006321 0.018023
vn -0.999818 0.006321 0.018023
vn -0.999818 0.006321 0.018023
vn -0.999818 0.006321 0.018023
vn 0.000056 0.948664 -0.316286
vn 0.000056 0.948664 -0.316286
vn 0.000056 0.948664 -0.316286
vn 0.000056 0.948664 -0.316286
vn 0.000000 1.000000 -0.000003
vn 0.000000 1.000000 -0.000003
vn 0.000000 1.000000 -0.000003
vn 0.000000 0.006034 -0.999982
vn 0.000000 0.006034 -0.999982
vn 0.000000 0.006034 -0.999982
vn 0.000000 0.006034 -0.999982
vn 0.999625 0.027380 0.000000
vn 0.999625 0.027380 0.000000
vn 0.999625 0.027380 0.000000
vn 0.999625 0.027380 0.000000
vn -0.999929 -0.011885 0.000000
vn -0.999929 -0.011885 0.000000
vn -0.999929 -0.011885 0.000000
vn -0.999929 -0.011885 0.000000
vn -0.999929 -0.000094 -0.011879
vn -0.999929 -0.000094 -0.011879
vn -0.999929 -0.000094 -0.011879
vn -0.999929 -0.000094 -0.011879
vn -0.003610 -0.008004 -0.999961
vn -0.003610 -0.008004 -0.999961
vn -0.003610 -0.008004 -0.999961
vn 0.999818 -0.000153 -0.019099
vn 0.999818 -0.000153 -0.019099
vn 0.999818 -0.000153 -0.019099
vn 0.999818 -0.000153 -0.019099
vn -0.000056 0.999724 -0.023492
vn -0.000056 0.999724 -0.023492
vn -0.000056 0.999724 -0.023492
vn -0.000056 0.999724 -0.023492
vn -0.999953 0.002752 -0.009282
vn -0.999953 0.002752 -0.009282
vn -0.999953 0.002752 -0.009282
vn -0.999953 0.002752 -0.009282
vn -0.004430 0.284205 -0.958753
vn -0.004430 0.284205 -0.958753
vn -0.004430 0.284205 -0.958753
vn 0.999879 0.004424 -0.014924
vn 0.999879 0.004424 -0.014924
vn 0.999879 0.004424 -0.014924
vn 0.999879 0.004424 -0.014924
vn -0.000069 0.963050 0.269323
vn -0.000069 0.963050 0.269323
vn -0.000069 0.963050 0.269323
vn -0.000069 0.963050 0.269323
s off
g polySurface1268
f 1/1/1 2/2/2 3/3/3 4/4/4
f 5/5/5 2/6/6 6/7/7 7/8/8
f 8/9/9 9/10/10 10/11/11 11/12/12
f 6/7/13 12/13/14 13/14/15 7/8/16
f 14/15/17 1/1/18 4/4/19 15/16/20
f 16/17/21 17/18/22 18/19/23 19/20/24
f 20/21/25 16/17/26 19/20/27 21/22/28
f 22/23/29 14/15/30 20/24/31 21/25/32
f 17/26/33 12/13/34 23/27/35 18/28/36
f 11/12/37 13/29/38 24/30/39
f 15/31/40 11/12/41 25/32/42
f 14/15/43 15/16/44 20/24/45
f 13/14/46 12/13/47 17/26/48
f 26/33/49 22/23/50 27/34/51 28/35/52
f 29/36/53 23/27/54 30/37/55 31/38/56
f 32/39/57 29/40/58 31/41/59
f 27/42/60 32/39/61 28/43/62
f 19/20/63 18/19/64 29/40/65 32/39/66
f 21/22/67 19/20/68 32/39/69 27/42/70
f 22/23/71 21/25/72 27/34/73
f 18/28/74 23/27/75 29/36/76
f 11/12/77 33/44/78 13/29/79
f 8/9/80 11/12/81 15/31/82
f 4/4/83 3/3/84 9/45/85 8/46/86
f 34/47/87 5/5/88 7/8/89 33/48/90
f 13/14/91 17/26/92 24/49/93
f 17/18/94 16/17/95 11/12/96 24/30/97
f 16/17/98 20/21/99 25/32/100 11/12/101
f 20/24/102 15/16/103 25/50/104
f 7/8/105 13/14/106 33/48/107
f 15/16/108 4/4/109 8/46/110
f 10/11/111 34/51/112 33/44/113 11/12/114
f 2/2/115 35/52/116 3/3/117
f 2/6/118 5/5/119 35/53/120
f 3/3/121 35/52/122 10/54/123 9/45/124
f 35/53/125 5/5/126 34/47/127 10/55/128
f 28/35/129 36/56/130 37/57/131 26/33/132
f 36/58/133 31/38/134 30/37/135 37/59/136
f 32/39/137 31/41/138 36/60/139
f 32/39/140 36/60/141 28/43/142
f 38/61/143 39/62/144 40/63/145 41/64/146
f 41/65/147 40/66/148 42/67/149
f 41/68/150 42/69/151 43/70/152 38/71/153
f 39/72/154 43/73/155 42/74/156 40/75/157
f 44/76/158 45/77/159 46/78/160
f 46/79/161 45/80/162 47/81/163 48/82/164
f 49/83/165 47/84/166 45/85/167 44/86/168
f 48/87/169 49/88/170 44/89/171 46/90/172
f 50/91/173 51/92/174 52/93/175 53/94/176
f 53/95/177 52/96/178 54/97/179
f 53/98/180 54/99/181 55/100/182 50/101/183
f 51/102/184 55/103/185 54/104/186 52/105/187
f 56/106/188 57/107/189 58/108/190 59/109/191
f 59/110/192 58/111/193 60/112/194
f 59/113/195 60/114/196 61/115/197 56/116/198
f 57/117/199 61/118/200 60/119/201 58/120/202
